<svg width="14" height="14" viewBox="0 0 14 14" fill="none" xmlns="http://www.w3.org/2000/svg">
<path d="M3.26732 1.86659C3.14791 1.86659 3.02837 1.91207 2.93737 2.00331L2.00404 2.93664C1.82157 3.11911 1.82157 3.41453 2.00404 3.59653L5.40742 6.99992L2.00404 10.4033C1.82157 10.5858 1.82157 10.8812 2.00404 11.0632L2.93737 11.9965C3.11984 12.179 3.41527 12.179 3.59727 11.9965L7.00065 8.59315L10.404 11.9965C10.586 12.179 10.8819 12.179 11.0639 11.9965L11.9973 11.0632C12.1797 10.8807 12.1797 10.5853 11.9973 10.4033L8.59388 6.99992L11.9973 3.59653C12.1797 3.41453 12.1797 3.11864 11.9973 2.93664L11.0639 2.00331C10.8815 1.82084 10.586 1.82084 10.404 2.00331L7.00065 5.40669L3.59727 2.00331C3.50603 1.91207 3.38673 1.86659 3.26732 1.86659Z" fill="white"/>
</svg>
