<svg width="20" height="15" viewBox="0 0 20 15" fill="none" xmlns="http://www.w3.org/2000/svg">
<path d="M13.4615 7.23077C13.4615 9.14252 11.9118 10.6923 10 10.6923M6.53846 7.23077C6.53846 5.31901 8.08824 3.76923 10 3.76923M7.92308 13.2223C8.5898 13.3756 9.28517 13.4615 10 13.4615C14.9706 13.4615 19 9.30769 19 7.23077C19 6.30549 18.2003 4.96801 16.8739 3.76923M12.4231 1.32545C11.6522 1.11849 10.8395 1 10 1C5.02944 1 1 5.15385 1 7.23077C1 8.14455 1.77998 9.46035 3.07692 10.6475M3.76923 13.4615L16.2308 1" stroke="#464646" stroke-width="2" stroke-linecap="round" stroke-linejoin="round"/>
</svg>
