<svg width="22" height="22" viewBox="0 0 22 22" fill="none" xmlns="http://www.w3.org/2000/svg">
<g clip-path="url(#clip0_10_1105)">
<path d="M19.0352 0H2.96454C1.3273 0 0 1.32725 0 2.96454V19.0353C0 20.6726 1.32725 21.9999 2.96454 21.9999H10.8905L10.904 14.1383H8.86161C8.59618 14.1383 8.38075 13.9237 8.37973 13.6583L8.36993 11.1242C8.36891 10.8573 8.58499 10.6404 8.85187 10.6404H10.8906V8.1918C10.8906 5.35023 12.626 3.80297 15.1609 3.80297H17.241C17.5071 3.80297 17.7229 4.01872 17.7229 4.28491V6.42168C17.7229 6.68775 17.5073 6.90346 17.2412 6.90362L15.9647 6.90421C14.5862 6.90421 14.3193 7.55928 14.3193 8.52062V10.6404H17.3484C17.637 10.6404 17.8609 10.8925 17.8269 11.1791L17.5266 13.7132C17.4978 13.9557 17.2922 14.1384 17.048 14.1384H14.3328L14.3193 22H19.0354C20.6726 22 21.9998 20.6728 21.9998 19.0355V2.96454C21.9998 1.32725 20.6725 0 19.0352 0Z" fill="white"/>
</g>
<defs>
<clipPath id="clip0_10_1105">
<rect width="22" height="22" rx="5" fill="white"/>
</clipPath>
</defs>
</svg>
