<svg width="22" height="22" viewBox="0 0 22 22" fill="none" xmlns="http://www.w3.org/2000/svg">
<rect width="22" height="22" rx="11" fill="white"/>
<g clip-path="url(#clip0_10_1095)">
<path d="M6.91646 12.5298L6.40593 14.4356L4.53997 14.4751C3.98232 13.4408 3.66602 12.2574 3.66602 10.9999C3.66602 9.78381 3.96176 8.63706 4.48597 7.62732H4.48638L6.1476 7.93188L6.87532 9.58314C6.72301 10.0272 6.64 10.5038 6.64 10.9999C6.64005 11.5382 6.73757 12.0539 6.91646 12.5298Z" fill="#FBBB00"/>
<path d="M18.2041 9.62988C18.2884 10.0735 18.3323 10.5316 18.3323 10.9998C18.3323 11.5249 18.2771 12.037 18.1719 12.531C17.8149 14.212 16.8821 15.6799 15.5899 16.7186L15.5895 16.7182L13.4971 16.6115L13.201 14.7628C14.0584 14.26 14.7285 13.473 15.0815 12.531H11.1602V9.62988H15.1387H18.2041Z" fill="#518EF8"/>
<path d="M15.589 16.7182L15.5894 16.7186C14.3327 17.7288 12.7363 18.3332 10.9984 18.3332C8.20573 18.3332 5.77768 16.7722 4.53906 14.4751L6.91555 12.5298C7.53484 14.1826 9.12924 15.3592 10.9984 15.3592C11.8019 15.3592 12.5546 15.142 13.2004 14.7628L15.589 16.7182Z" fill="#28B446"/>
<path d="M15.6805 5.35477L13.3049 7.29971C12.6364 6.88188 11.8462 6.64051 10.9997 6.64051C9.0882 6.64051 7.46398 7.87105 6.87571 9.58313L4.48673 7.62731H4.48633C5.70681 5.27419 8.16548 3.6665 10.9997 3.6665C12.779 3.6665 14.4105 4.30032 15.6805 5.35477Z" fill="#F14336"/>
</g>
<defs>
<clipPath id="clip0_10_1095">
<rect x="3.66602" y="3.6665" width="14.6667" height="14.6667" rx="7.33333" fill="white"/>
</clipPath>
</defs>
</svg>
